<?xml version="1.0" encoding="UTF-8" standalone="no"?>
<!DOCTYPE svg PUBLIC "-//W3C//DTD SVG 1.1//EN"
 "http://www.w3.org/Graphics/SVG/1.1/DTD/svg11.dtd">
<!-- Generated by graphviz version 2.46.0 (20210118.1747)
 -->
<!-- Title: dependency&#45;cruiser output Pages: 1 -->
<svg width="301pt" height="230pt"
 viewBox="0.00 0.00 301.00 230.00" xmlns="http://www.w3.org/2000/svg" xmlns:xlink="http://www.w3.org/1999/xlink">
<g id="graph0" class="graph" transform="scale(1 1) rotate(0) translate(4 226)">
<title>dependency&#45;cruiser output</title>
<polygon fill="white" stroke="transparent" points="-4,4 -4,-226 297,-226 297,4 -4,4"/>
<g id="clust1" class="cluster">
<title>cluster_src</title>
<path fill="#ffffff" stroke="black" stroke-width="2" d="M20,-8C20,-8 273,-8 273,-8 279,-8 285,-14 285,-20 285,-20 285,-202 285,-202 285,-208 279,-214 273,-214 273,-214 20,-214 20,-214 14,-214 8,-208 8,-202 8,-202 8,-20 8,-20 8,-14 14,-8 20,-8"/>
<text text-anchor="middle" x="146.5" y="-202.8" font-family="Helvetica,sans-Serif" font-weight="bold" font-size="9.00">src</text>
</g>
<g id="clust2" class="cluster">
<title>cluster_src/components</title>
<path fill="#ffffff" stroke="black" stroke-width="2" d="M29,-136C29,-136 187,-136 187,-136 193,-136 199,-142 199,-148 199,-148 199,-176 199,-176 199,-182 193,-188 187,-188 187,-188 29,-188 29,-188 23,-188 17,-182 17,-176 17,-176 17,-148 17,-148 17,-142 23,-136 29,-136"/>
<text text-anchor="middle" x="108" y="-176.8" font-family="Helvetica,sans-Serif" font-weight="bold" font-size="9.00">components</text>
</g>
<g id="clust3" class="cluster">
<title>cluster_src/contracts</title>
<path fill="#ffffff" stroke="black" stroke-width="2" d="M28,-76C28,-76 82,-76 82,-76 88,-76 94,-82 94,-88 94,-88 94,-116 94,-116 94,-122 88,-128 82,-128 82,-128 28,-128 28,-128 22,-128 16,-122 16,-116 16,-116 16,-88 16,-88 16,-82 22,-76 28,-76"/>
<text text-anchor="middle" x="55" y="-116.8" font-family="Helvetica,sans-Serif" font-weight="bold" font-size="9.00">contracts</text>
</g>
<g id="clust4" class="cluster">
<title>cluster_src/hooks</title>
<path fill="#ffffff" stroke="black" stroke-width="2" d="M219,-136C219,-136 265,-136 265,-136 271,-136 277,-142 277,-148 277,-148 277,-176 277,-176 277,-182 271,-188 265,-188 265,-188 219,-188 219,-188 213,-188 207,-182 207,-176 207,-176 207,-148 207,-148 207,-142 213,-136 219,-136"/>
<text text-anchor="middle" x="242" y="-176.8" font-family="Helvetica,sans-Serif" font-weight="bold" font-size="9.00">hooks</text>
</g>
<g id="clust5" class="cluster">
<title>cluster_src/utils</title>
<path fill="#ffffff" stroke="black" stroke-width="2" d="M32,-16C32,-16 78,-16 78,-16 84,-16 90,-22 90,-28 90,-28 90,-56 90,-56 90,-62 84,-68 78,-68 78,-68 32,-68 32,-68 26,-68 20,-62 20,-56 20,-56 20,-28 20,-28 20,-22 26,-16 32,-16"/>
<text text-anchor="middle" x="55" y="-56.8" font-family="Helvetica,sans-Serif" font-weight="bold" font-size="9.00">utils</text>
</g>
<!-- src/components/ConnectWallet.jsx -->
<g id="node1" class="node">
<title>src/components/ConnectWallet.jsx</title>
<g id="a_node1"><a xlink:href="src/components/ConnectWallet.jsx" xlink:title="ConnectWallet.jsx">
<path fill="#ffff77" stroke="black" d="M185,-162C185,-162 108,-162 108,-162 105,-162 102,-159 102,-156 102,-156 102,-150 102,-150 102,-147 105,-144 108,-144 108,-144 185,-144 185,-144 188,-144 191,-147 191,-150 191,-150 191,-156 191,-156 191,-159 188,-162 185,-162"/>
<text text-anchor="middle" x="146.5" y="-150.8" font-family="Helvetica,sans-Serif" font-size="9.00">ConnectWallet.jsx</text>
</a>
</g>
</g>
<!-- src/hooks/web3.js -->
<g id="node2" class="node">
<title>src/hooks/web3.js</title>
<g id="a_node2"><a xlink:href="src/hooks/web3.js" xlink:title="web3.js">
<path fill="#ffffcc" stroke="black" d="M263,-162C263,-162 221,-162 221,-162 218,-162 215,-159 215,-156 215,-156 215,-150 215,-150 215,-147 218,-144 221,-144 221,-144 263,-144 263,-144 266,-144 269,-147 269,-150 269,-150 269,-156 269,-156 269,-159 266,-162 263,-162"/>
<text text-anchor="middle" x="242" y="-150.8" font-family="Helvetica,sans-Serif" font-size="9.00">web3.js</text>
</a>
</g>
</g>
<!-- src/components/ConnectWallet.jsx&#45;&gt;src/hooks/web3.js -->
<g id="edge1" class="edge">
<title>src/components/ConnectWallet.jsx&#45;&gt;src/hooks/web3.js</title>
<path fill="none" stroke="#000000" stroke-width="2" stroke-opacity="0.200000" d="M191.24,-153C197.17,-153 203.17,-153 208.85,-153"/>
<polygon fill="#000000" fill-opacity="0.200000" stroke="#000000" stroke-width="2" stroke-opacity="0.200000" points="208.87,-155.1 214.87,-153 208.87,-150.9 208.87,-155.1"/>
</g>
<!-- src/components/Navbar.jsx -->
<g id="node3" class="node">
<title>src/components/Navbar.jsx</title>
<g id="a_node3"><a xlink:href="src/components/Navbar.jsx" xlink:title="Navbar.jsx">
<path fill="#ffff77" stroke="black" d="M79,-162C79,-162 31,-162 31,-162 28,-162 25,-159 25,-156 25,-156 25,-150 25,-150 25,-147 28,-144 31,-144 31,-144 79,-144 79,-144 82,-144 85,-147 85,-150 85,-150 85,-156 85,-156 85,-159 82,-162 79,-162"/>
<text text-anchor="middle" x="55" y="-150.8" font-family="Helvetica,sans-Serif" font-size="9.00">Navbar.jsx</text>
</a>
</g>
</g>
<!-- src/components/Navbar.jsx&#45;&gt;src/components/ConnectWallet.jsx -->
<g id="edge2" class="edge">
<title>src/components/Navbar.jsx&#45;&gt;src/components/ConnectWallet.jsx</title>
<path fill="none" stroke="#000000" stroke-width="2" stroke-opacity="0.200000" d="M85.31,-153C88.7,-153 92.23,-153 95.81,-153"/>
<polygon fill="#000000" fill-opacity="0.200000" stroke="#000000" stroke-width="2" stroke-opacity="0.200000" points="95.85,-155.1 101.85,-153 95.85,-150.9 95.85,-155.1"/>
</g>
<!-- src/contracts/Example.js -->
<g id="node4" class="node">
<title>src/contracts/Example.js</title>
<g id="a_node4"><a xlink:href="src/contracts/Example.js" xlink:title="Example.js">
<path fill="#ccffcc" stroke="black" d="M80,-102C80,-102 30,-102 30,-102 27,-102 24,-99 24,-96 24,-96 24,-90 24,-90 24,-87 27,-84 30,-84 30,-84 80,-84 80,-84 83,-84 86,-87 86,-90 86,-90 86,-96 86,-96 86,-99 83,-102 80,-102"/>
<text text-anchor="middle" x="55" y="-90.8" font-family="Helvetica,sans-Serif" font-size="9.00">Example.js</text>
</a>
</g>
</g>
<!-- src/utils/theme.js -->
<g id="node5" class="node">
<title>src/utils/theme.js</title>
<g id="a_node5"><a xlink:href="src/utils/theme.js" xlink:title="theme.js">
<path fill="#ccffcc" stroke="black" d="M76,-42C76,-42 34,-42 34,-42 31,-42 28,-39 28,-36 28,-36 28,-30 28,-30 28,-27 31,-24 34,-24 34,-24 76,-24 76,-24 79,-24 82,-27 82,-30 82,-30 82,-36 82,-36 82,-39 79,-42 76,-42"/>
<text text-anchor="middle" x="55" y="-30.8" font-family="Helvetica,sans-Serif" font-size="9.00">theme.js</text>
</a>
</g>
</g>
</g>
</svg>
